<?xml version="1.0" encoding="UTF-8" standalone="no"?>
<svg
   width="755.90601"
   height="226.772"
   viewBox="0 0 755.90601 226.772"
   version="1.1"
   id="svg4385"
   sodipodi:docname="search-not-results2.svg"
   inkscape:version="1.2.2 (732a01da63, 2022-12-09)"
   xmlns:inkscape="http://www.inkscape.org/namespaces/inkscape"
   xmlns:sodipodi="http://sodipodi.sourceforge.net/DTD/sodipodi-0.dtd"
   xmlns="http://www.w3.org/2000/svg"
   xmlns:svg="http://www.w3.org/2000/svg"
   xmlns:rdf="http://www.w3.org/1999/02/22-rdf-syntax-ns#"
   xmlns:cc="http://creativecommons.org/ns#"
   xmlns:dc="http://purl.org/dc/elements/1.1/">
  <sodipodi:namedview
     id="namedview4387"
     pagecolor="#ffffff"
     bordercolor="#000000"
     borderopacity="0.25"
     inkscape:showpageshadow="2"
     inkscape:pageopacity="0.0"
     inkscape:pagecheckerboard="0"
     inkscape:deskcolor="#d1d1d1"
     showgrid="false"
     inkscape:zoom="1.0983167"
     inkscape:cx="417.91223"
     inkscape:cy="135.66214"
     inkscape:window-width="1366"
     inkscape:window-height="705"
     inkscape:window-x="-8"
     inkscape:window-y="-8"
     inkscape:window-maximized="1"
     inkscape:current-layer="svg4385" />
  <title
     id="title4307">default_no_search_results</title>
  <defs
     id="defs4340">
    <linearGradient
       x1="69.174644"
       y1="-0.0046493704"
       x2="69.174644"
       y2="58.674667"
       id="linearGradient-1"
       gradientTransform="scale(1.4313562,0.69863813)"
       gradientUnits="userSpaceOnUse">
      <stop
         stop-color="#92C1FC"
         stop-opacity="0.4"
         offset="3%"
         id="stop4309" />
      <stop
         stop-color="#92C1FC"
         stop-opacity="0.2"
         offset="25%"
         id="stop4311" />
      <stop
         stop-color="#187FC4"
         stop-opacity="0"
         offset="80%"
         id="stop4313" />
    </linearGradient>
    <linearGradient
       x1="23.51483"
       y1="109.71889"
       x2="23.51483"
       y2="156.76694"
       id="linearGradient-2"
       gradientTransform="scale(1.424887,0.70181003)"
       gradientUnits="userSpaceOnUse">
      <stop
         stop-color="#92C1FC"
         stop-opacity="0.4"
         offset="3%"
         id="stop4316" />
      <stop
         stop-color="#92C1FC"
         stop-opacity="0.2"
         offset="25%"
         id="stop4318" />
      <stop
         stop-color="#187FC4"
         stop-opacity="0"
         offset="80%"
         id="stop4320" />
    </linearGradient>
    <linearGradient
       x1="169.70934"
       y1="38.458687"
       x2="169.70934"
       y2="85.781952"
       id="linearGradient-3"
       gradientTransform="scale(1.4790199,0.6761234)"
       gradientUnits="userSpaceOnUse">
      <stop
         stop-color="#92C1FC"
         stop-opacity="0.4"
         offset="3%"
         id="stop4323" />
      <stop
         stop-color="#92C1FC"
         stop-opacity="0.2"
         offset="25%"
         id="stop4325" />
      <stop
         stop-color="#187FC4"
         stop-opacity="0"
         offset="80%"
         id="stop4327" />
    </linearGradient>
    <linearGradient
       x1="203.15614"
       y1="81.682541"
       x2="177.08252"
       y2="105.62237"
       id="linearGradient-4"
       gradientTransform="scale(1.0077822,0.99227788)"
       gradientUnits="userSpaceOnUse">
      <stop
         stop-color="#63A6F9"
         offset="0%"
         id="stop4330" />
      <stop
         stop-color="#92C1FC"
         offset="100%"
         id="stop4332" />
    </linearGradient>
    <linearGradient
       x1="200.17729"
       y1="81.455597"
       x2="173.70454"
       y2="105.57987"
       id="linearGradient-5"
       gradientTransform="scale(1.0177851,0.98252567)"
       gradientUnits="userSpaceOnUse">
      <stop
         stop-color="#63A6F9"
         offset="0%"
         id="stop4335" />
      <stop
         stop-color="#92C1FC"
         offset="100%"
         id="stop4337" />
    </linearGradient>
  </defs>
  <g
     id="页面-1"
     stroke="none"
     stroke-width="1"
     fill="none"
     fill-rule="evenodd"
     transform="matrix(0.93666612,0,0,0.85697143,255.74365,40.792755)">
    <g
       id="缺省页"
       transform="translate(-713,-1211)">
      <g
         id="default_no_search_results"
         transform="translate(713,1211)">
        <path
           d="m 58.387824,19.116028 c 2.271998,-3.847873 7.296416,-6.755044 18.015844,-4.688501 0,0 17.120056,-30.522791 43.958662,-2.777074 0,0 16.01408,-3.822854 20.09767,8.271177 1.78087,5.358134 -0.9806,11.167268 -6.2605,13.169833 C 120.43239,38.375409 88.864626,47.602298 62.706622,33.621859 57.482027,30.824771 55.37017,24.23485 58.387824,19.116028 Z"
           id="路径"
           fill="url(#linearGradient-1)"
           fill-rule="nonzero"
           style="fill:url(#linearGradient-1)" />
        <path
           d="m 1.1068506,92.40293 c 1.8142323,-3.100191 5.8183962,-5.44156 14.3853294,-3.779138 0,0 13.653705,-24.591861 35.053736,-2.236532 0,0 12.754004,-3.075231 16.031486,6.664664 1.404973,4.314103 -0.801979,8.980636 -5.007676,10.588576 -10.979319,4.25341 -36.151174,11.66691 -57.0123736,0.42434 C 0.38511243,101.8333 -1.3005911,96.526535 1.1068506,92.40293 Z"
           id="path4343"
           fill="url(#linearGradient-2)"
           fill-rule="nonzero"
           style="fill:url(#linearGradient-2)" />
        <path
           d="m 217.15563,40.92458 c 1.89095,-3.002128 6.0759,-5.268537 15.02801,-3.658843 0,0 14.26168,-23.83433 36.61958,-2.167655 0,0 13.32118,-2.962627 16.74478,6.458525 1.49285,4.167428 -0.83102,8.700247 -5.21999,10.275376 -11.44518,4.127927 -37.76907,11.312296 -59.55968,0.414768 -4.36907,-2.182468 -6.12566,-7.322625 -3.6127,-11.322171 z"
           id="path4345"
           fill="url(#linearGradient-3)"
           fill-rule="nonzero"
           style="fill:url(#linearGradient-3)" />
        <path
           d="m 153,114.05999 c 0,0 8.69052,-27.704189 33.41853,-40.145444 l 6.05839,4.135474 -2.95178,-5.941944 c 0,0 17.70069,-9.823615 26.71585,-2.224496 5.06448,4.264862 -0.88903,18.766389 -16.80166,37.38846 l -5.4091,-1.60243 3.36633,4.85208 c 0,0 -10.30376,19.28395 -28.75862,20.47831 l -8.60561,-7.56926 z"
           id="path4347"
           fill="url(#linearGradient-4)"
           fill-rule="nonzero"
           style="fill:url(#linearGradient-4)" />
        <path
           d="m 160.04896,123.96592 c -0.527,0.52657 3.23655,-5.10522 9.54558,-12.99876 C 179.65221,98.389655 196.50116,78.079091 216,70"
           id="path4349"
           stroke="#aad0ff"
           stroke-width="1.74"
           fill="url(#linearGradient-5)"
           fill-rule="nonzero"
           stroke-linecap="round"
           style="fill:url(#linearGradient-5)" />
        <path
           d="m 188,89.625518 c 0,0 9.54775,-2.777937 16,3.374482"
           id="path4351"
           stroke="#aad0ff"
           stroke-width="1.74"
           stroke-linecap="round" />
        <path
           d="m 189,117 c -8.85182,-10.38691 -19,-7.68305 -19,-7.68305"
           id="path4353"
           stroke="#aad0ff"
           stroke-width="1.74"
           stroke-linecap="round" />
        <path
           d="m 174,104 c 0,0 8.75689,-12.024814 9,-26"
           id="path4355"
           stroke="#aad0ff"
           stroke-width="1.74"
           stroke-linecap="round" />
        <path
           d="m 230,98 c 0,0 -14.62651,42.64657 -60.12842,38.74813 L 162,123.51214 c 0,0 61.91605,-18.55205 68,-25.51214 z"
           id="path4357"
           fill="#aad0ff"
           fill-rule="nonzero" />
        <path
           d="m 162,123.85411 c 0,0 13.72018,-14.56506 39.79853,-18.599 0,0 20.23976,-1.88483 28.20147,-7.25511 0,0 -11.2866,11.91732 -30.87541,14.10134 0,0 1.68749,1.6405 13.86039,-0.58341 0,0 -18.9028,16.83385 -45.64713,17.48207 z"
           id="path4359"
           fill="#63a6f9"
           fill-rule="nonzero" />
        <path
           d="m 190.8983,36.877817 h -4.89032 V 31.53602 C 186.00798,30.6877 185.33283,30 184.5,30 c -0.83283,0 -1.50798,0.6877 -1.50798,1.53602 v 5.341797 h -4.89033 c -0.39359,0 -0.75729,0.213887 -0.95409,0.561091 -0.1968,0.347205 -0.1968,0.774979 0,1.122184 0.1968,0.347204 0.5605,0.561091 0.95409,0.561091 h 4.89033 v 5.341797 c 0,0.84832 0.67515,1.53602 1.50798,1.53602 0.83283,0 1.50798,-0.6877 1.50798,-1.53602 v -5.341797 h 4.89032 c 0.3936,0 0.7573,-0.213887 0.9541,-0.561091 0.1968,-0.347205 0.1968,-0.774979 0,-1.122184 -0.1968,-0.347204 -0.5605,-0.561091 -0.9541,-0.561091 z"
           id="path4361"
           fill="#63a6f9"
           fill-rule="nonzero" />
        <path
           d="m 64.505218,83.588275 c 1.178574,-0.0021 2.242156,0.706566 2.694135,1.795031 0.451979,1.088465 0.203198,2.342051 -0.630181,3.17543 -0.833379,0.833379 -2.086965,1.08216 -3.17543,0.630181 -1.088465,-0.451979 -1.7971,-1.515561 -1.795031,-2.694135 0.0028,-1.604047 1.30246,-2.903681 2.906507,-2.906507 m 0,-3.588273 c -2.629898,-0.0021 -5.001895,1.580819 -6.009271,4.010132 -1.007376,2.429312 -0.451598,5.226279 1.408021,7.085898 1.859619,1.859619 4.656586,2.415398 7.085898,1.408021 2.429313,-1.007376 4.012203,-3.379374 4.010134,-6.009271 0,-3.586967 -2.907815,-6.49478 -6.494782,-6.49478 z"
           id="形状"
           fill="#63a6f9"
           fill-rule="nonzero" />
        <path
           d="m 246.50522,109.58827 c 1.17811,-0.002 2.24137,0.70601 2.69365,1.79385 0.45228,1.08783 0.20444,2.34102 -0.62788,3.1748 -0.83231,0.83378 -2.08506,1.08383 -3.17369,0.63347 -1.08863,-0.45036 -1.79858,-1.51237 -1.79858,-2.69048 0,-1.60605 1.30045,-2.9088 2.9065,-2.91164 m 0,-3.58827 c -2.62943,-0.002 -5.0011,1.58027 -6.00878,4.00895 -1.00768,2.42868 -0.45284,5.22525 1.40571,7.08527 1.85856,1.86002 4.65469,2.41707 7.08416,1.41131 2.42948,-1.00577 4.01369,-3.37619 4.01369,-6.00562 0,-3.5878 -2.90698,-6.49708 -6.49478,-6.49991 z"
           id="path4364"
           fill="#63a6f9"
           fill-rule="nonzero" />
        <circle
           id="椭圆形"
           fill="#e6f3ff"
           fill-rule="nonzero"
           transform="rotate(-45,134.3776,104.37727)"
           cx="134.37761"
           cy="104.37727"
           r="43.124962" />
        <path
           d="m 193.13576,169 c -0.68069,0.005 -1.33533,-0.26141 -1.8181,-0.74128 l -27.57204,-27.57431 c -0.99416,-1.00811 -0.99416,-2.62773 0,-3.63584 l 0.30552,-0.30549 c 1.00761,-0.99077 2.62359,-0.99077 3.6312,0 l 27.57204,27.5693 c 0.99416,1.00811 0.99416,2.62773 0,3.63584 l -0.30051,0.3055 c -0.48194,0.48169 -1.13669,0.75042 -1.81811,0.74628 z"
           id="path4367"
           fill="#f7f8f8"
           fill-rule="nonzero" />
        <circle
           id="circle4369"
           fill="#e6f3ff"
           fill-rule="nonzero"
           cx="136"
           cy="99"
           r="43" />
        <path
           d="m 135.9851,59.944219 c 15.79795,-0.006 30.04367,9.505791 36.09346,24.099458 6.04978,14.593666 2.71201,31.394693 -8.45669,42.567653 -11.1687,11.17297 -27.96845,14.51715 -42.56443,8.47293 C 106.46147,129.04004 96.944221,114.79794 96.944221,99 96.968847,77.440298 114.4403,59.968847 136,59.944219 M 136,52 c -25.95738,0 -47,21.042617 -47,47 0,25.95738 21.04262,47 47,47 25.95738,0 47,-21.04262 47,-47 0,-25.957383 -21.04262,-47 -47,-47 z"
           id="path4371"
           fill="#92c1fc"
           fill-rule="nonzero" />
        <path
           d="m 196.12645,169 c -0.68107,0.003 -1.33539,-0.26549 -1.81748,-0.74712 l -27.56763,-27.56712 c -0.98845,-1.01115 -0.98845,-2.62772 0,-3.63886 l 0.30542,-0.30074 c 1.00786,-0.99488 2.62709,-0.99488 3.63496,0 l 27.56262,27.59219 c 0.4837,0.48165 0.75566,1.13646 0.75566,1.81943 0,0.68298 -0.27196,1.33778 -0.75566,1.81943 l -0.30041,0.30073 c -0.48617,0.47246 -1.13999,0.7321 -1.81748,0.72206 z"
           id="path4373"
           fill="#f7f8f8"
           fill-rule="nonzero" />
        <path
           d="m 167.33198,127 c -1.59493,-0.001 -3.12521,0.63058 -4.25495,1.75683 l -0.30608,0.30619 C 161.63724,130.19321 161,131.72845 161,133.32958 c 0,1.60112 0.63724,3.13636 1.77095,4.26656 l 27.62205,27.63225 c 1.12978,1.13413 2.66445,1.77161 4.26499,1.77161 1.60053,0 3.1352,-0.63748 4.26498,-1.77161 l 0.30608,-0.30619 C 200.36276,163.792 201,162.25677 201,160.65564 c 0,-1.60112 -0.63724,-3.13636 -1.77095,-4.26656 l -27.63711,-27.63225 c -1.13097,-1.12748 -2.66329,-1.75941 -4.25996,-1.75683 z"
           id="path4375"
           fill="#92c1fc"
           fill-rule="nonzero" />
        <path
           d="m 120,74 c 0,0 -12.73668,8.404979 -11.96642,24"
           id="path4377"
           stroke="#f7f8f8"
           stroke-width="16"
           fill="#e6f3ff"
           fill-rule="nonzero"
           stroke-linecap="round" />
        <text
           id="？"
           stroke="#70aefa"
           stroke-width="3"
           font-family="STYuanti-SC-Regular, 'Yuanti SC'"
           font-size="73px"
           font-weight="normal"
           fill="#70aefa"><tspan
             x="119.73554"
             y="122.21501"
             id="tspan4379">？</tspan></text>
      </g>
    </g>
  </g>
  <metadata
     id="metadata4389">
    <rdf:RDF>
      <cc:Work
         rdf:about="">
        <dc:title>default_no_search_results</dc:title>
      </cc:Work>
    </rdf:RDF>
  </metadata>
</svg>
