<?xml version="1.0" encoding="utf-8"?>
<!-- Generator: Adobe Illustrator 16.0.3, SVG Export Plug-In . SVG Version: 6.00 Build 0)  -->
<!DOCTYPE svg PUBLIC "-//W3C//DTD SVG 1.1//EN" "http://www.w3.org/Graphics/SVG/1.1/DTD/svg11.dtd">
<svg version="1.1" id="Capa_1" xmlns="http://www.w3.org/2000/svg" xmlns:xlink="http://www.w3.org/1999/xlink" x="0px" y="0px"
	 width="143.2px" height="191.997px" viewBox="0 0 143.2 191.997" enable-background="new 0 0 143.2 191.997" xml:space="preserve">
<path fill="#00733A" d="M0,22v144.997c0,0,0.2,6.4,2.4,11s4.2,5.8,5.2,6.8s5,3.8,5,3.8l5.8,2.6c0,0,3.801,0.801,6.201,0.801
	s96.4,0,96.4,0s6.398-1.399,7.398-2.2s5.4-3.2,5.4-3.2l3.801-3.601l1.799-3.6l2.201-3.6l1.6-4.601v-3V58.869v-2.87L88.8,0H23
	c0,0-2.6,0-8,2.2S6.4,8,6.4,8l-3.6,5.4C2.8,13.4,0,18.799,0,22z"/>
<polygon fill="#4D9E76" points="88.8,55.999 88.8,0 143.2,55.999 "/>
<text transform="matrix(1 0 0 1 11.0669 125.5347)" fill="#FFFFFF" stroke="#FFFFFF" stroke-width="3" stroke-miterlimit="10" font-family="'Arial-BoldMT'" font-size="45">XLSX</text>
</svg>
